<?xml version="1.0" ?><svg height="36px" version="1.1" viewBox="0 0 30 36" width="30px" xmlns="http://www.w3.org/2000/svg" xmlns:xlink="http://www.w3.org/1999/xlink"><title/><desc/><defs/><g fill="none" fill-rule="evenodd" id="Music" stroke="none" stroke-width="1"><g id="Icons" stroke="#979797" stroke-width="3" transform="translate(-128.000000, -129.000000)"><g id="Volume" transform="translate(143.000000, 147.000000) scale(-1, 1) translate(-143.000000, -147.000000) translate(131.000000, 132.000000)"><path d="M18.7536831,20.1861961 C16.6097142,22.765318 12.8712381,25.4796517 8.6218149,27.7580311 C6.57930908,28.8531452 4.60536705,29.7334971 3.10011394,30.2223575 C2.27789042,30.4893907 1.59429433,30.6422345 1.03833262,30.6624748 C-0.0999008151,30.7039132 -1.13085938,30.1884554 -1.13085938,28.8457031 L-1.13085938,1.04931641 C-1.13085938,-0.263231745 -0.102030526,-0.867633643 1.04133315,-0.820764961 C1.61984268,-0.79705074 2.314452,-0.617266967 3.15024806,-0.303596016 C4.63895871,0.255111198 6.60032659,1.25868986 8.65401319,2.50976575 C12.8323318,5.05513641 16.5825383,8.07379831 18.7368172,10.8201236 C19.2928033,10.610641 19.8884758,10.5 20.5,10.5 C23.2614237,10.5 25.5,12.7385763 25.5,15.5 C25.5,18.2614237 23.2614237,20.5 20.5,20.5 C19.8947805,20.5 19.3049689,20.3916369 18.7536831,20.1861961 Z" id="Combined-Shape"/></g></g></g></svg>