<?xml version="1.0" encoding="utf-8"?>
<svg id="master-artboard" viewBox="0 0 1182.822998046875 685.9569091796875" xmlns="http://www.w3.org/2000/svg" width="1182.822998046875px" height="685.9569091796875px" version="1.1" style="shape-rendering:geometricPrecision; text-rendering:geometricPrecision; image-rendering:optimizeQuality; fill-rule:evenodd; clip-rule:evenodd"><rect id="ee-background" x="0" y="0" width="1182.822998046875" height="685.9569091796875" style="fill: white; fill-opacity: 0; pointer-events: none;"/><g transform="matrix(-0.018302924931049347, -46.88847351074219, 46.88847351074219, -0.018302924931049347, -17.078314065933228, 696.9412841796875)"><path d="M0.924346 1.0675C0.572838 1.41911 0.375371 1.89594 0.375371 2.39312C0.375371 2.89031 0.572838 3.36713 0.924346 3.71875L10.2056 13L0.924346 22.2812C0.5828 22.6349 0.39381 23.1085 0.398083 23.6001C0.402354 24.0917 0.599545 24.562 0.947186 24.9097C1.29483 25.2573 1.7651 25.4545 2.25672 25.4588C2.74834 25.463 3.22197 25.274 3.57559 24.9325L14.1825 14.3256C14.534 13.974 14.7314 13.4972 14.7314 13C14.7314 12.5028 14.534 12.026 14.1825 11.6744L3.57559 1.0675C3.22398 0.715991 2.74715 0.518524 2.24997 0.518524C1.75279 0.518524 1.27596 0.715991 0.924346 1.0675Z" fill="#F2785C"/></g></svg>